<svg  viewBox="0 0 18 18" fill="none" xmlns="http://www.w3.org/2000/svg">
<path fill-rule="evenodd" clip-rule="evenodd" d="M3.042 11.1292C0.813 8.90012 0.813 5.27207 3.042 3.04304C5.271 0.813011 8.899 0.813011 11.128 3.04304C13.358 5.27207 13.358 8.90012 11.128 11.1292C8.899 13.3582 5.271 13.3582 3.042 11.1292ZM17.698 16.2452L12.766 11.3132C14.832 8.53912 14.615 4.58906 12.098 2.07303C9.334 -0.69101 4.837 -0.69101 2.073 2.07303C-0.691 4.83707 -0.691 9.33413 2.073 12.0982C4.589 14.6142 8.538 14.8322 11.312 12.7662L16.245 17.6992C16.646 18.1003 17.297 18.1003 17.699 17.6992C18.101 17.2972 18.1 16.6472 17.698 16.2452Z" fill="white"/>
</svg>
